<svg xmlns="http://www.w3.org/2000/svg" width="229.148" height="44" viewBox="0 0 229.148 44">
  <g id="Grupo_1220" data-name="Grupo 1220" transform="translate(-1102.715 -2706.356)">
    <text id="Go" transform="translate(1173.741 2739.356)" font-size="37" font-family="BebasNeueBold, Bebas Neue"><tspan x="0" y="0">Go</tspan></text>
    <text id="v" transform="translate(1203.906 2739.356)" font-size="37" font-family="BebasNeueBold, Bebas Neue"><tspan x="0" y="0">v</tspan></text>
    <text id="_." data-name="." transform="translate(1217.07 2737.356)" font-size="34" font-family="BebasNeueBold, Bebas Neue"><tspan x="0" y="0">.</tspan></text>
    <text id="Code_Pro" data-name="Code Pro" transform="translate(1223.863 2739.356)" font-size="37" font-family="BebasNeueBold, Bebas Neue"><tspan x="0" y="0">Code Pro</tspan></text>
    <path id="Trazado_1041" data-name="Trazado 1041" d="M278.44,238.186v.018l-14.4,9.041-5.823,3.576c-2.922,1.8-5.947.236-6.567-1.925-.592-2.069.4-4.173,4.16-6.479l14.236-8.741c2.634,1.49,5.362,2.964,8.4,4.51" transform="translate(886.721 2494.071)" fill-rule="evenodd"/>
    <path id="Trazado_1042" data-name="Trazado 1042" d="M277.083,234.472v1.039c-5.049,3.17-10.358,6.311-15.3,9.6l-5.823,3.576a7.235,7.235,0,0,1-1.8.8,6.347,6.347,0,0,1-4.061-.168,5.888,5.888,0,0,1-2.891-2.37,5.128,5.128,0,0,1-.562-1.264,5.578,5.578,0,0,1,.646-4.61,12.507,12.507,0,0,1,4.334-3.96l15.163-9.31.954.54c1.265.716,2.591,1.449,4.011,2.212,1.313.706,2.738,1.452,4.312,2.254l1.016.518Zm-17.226,7.477,11.652-7.314q-.754-.4-1.511-.806-1.564-.842-3.127-1.718l-13.313,8.174a9.05,9.05,0,0,0-3.086,2.7,2.051,2.051,0,0,0-.253,1.691,1.407,1.407,0,0,0,.155.35,2.151,2.151,0,0,0,1.061.845,2.677,2.677,0,0,0,1.71.052,3.576,3.576,0,0,0,.889-.4Z" transform="translate(889.936 2497.785)" fill="#3266cc" fill-rule="evenodd"/>
    <path id="Trazado_1043" data-name="Trazado 1043" d="M277.058,198.783l-17.2-10.655-5.823-3.575a3.554,3.554,0,0,0-.889-.4,2.674,2.674,0,0,0-1.709.053,2.143,2.143,0,0,0-1.062.845,1.414,1.414,0,0,0-.155.35,2.053,2.053,0,0,0,.253,1.692,9.042,9.042,0,0,0,3.086,2.7l.345.212c7.967,4.893,13.921,8.549,22.164,12.749l-1.685,3.31c-8.3-4.229-14.336-7.935-22.41-12.893l-.345-.212a12.507,12.507,0,0,1-4.334-3.96,5.577,5.577,0,0,1-.646-4.61,5.11,5.11,0,0,1,.562-1.265,5.892,5.892,0,0,1,2.891-2.369,6.35,6.35,0,0,1,4.061-.169,7.279,7.279,0,0,1,1.8.8l5.823,3.576,15.38,9.529h-.085v4.251Z" transform="translate(889.936 2527.851)" fill="#3266cc" fill-rule="evenodd"/>
    <path id="Trazado_1044" data-name="Trazado 1044" d="M159.781,198.809v-.018l14.4-9.041,5.822-3.576c2.923-1.8,5.949-.236,6.567,1.925.592,2.07-.4,4.173-4.16,6.479l-14.236,8.741c-2.634-1.49-5.362-2.964-8.4-4.51" transform="translate(944.792 2524.647)" fill="#3266cc" fill-rule="evenodd"/>
    <path id="Trazado_1045" data-name="Trazado 1045" d="M154.715,195.605v-1.039c5.049-3.169,10.358-6.311,15.3-9.6l5.822-3.576a7.263,7.263,0,0,1,1.8-.8,6.347,6.347,0,0,1,4.061.168,5.89,5.89,0,0,1,2.891,2.369,5.143,5.143,0,0,1,.562,1.265,5.578,5.578,0,0,1-.646,4.61,12.518,12.518,0,0,1-4.335,3.96l-15.163,9.31-.954-.54c-1.266-.716-2.592-1.448-4.011-2.212-1.313-.706-2.739-1.453-4.312-2.254l-1.016-.518Zm17.226-7.477-11.652,7.314q.754.4,1.51.806,1.565.842,3.128,1.718l13.312-8.174a9.053,9.053,0,0,0,3.086-2.7,2.051,2.051,0,0,0,.253-1.692,1.412,1.412,0,0,0-.155-.35,2.146,2.146,0,0,0-1.061-.845,2.678,2.678,0,0,0-1.709-.053,3.6,3.6,0,0,0-.889.4Z" transform="translate(948 2527.851)" fill-rule="evenodd"/>
    <path id="Trazado_1046" data-name="Trazado 1046" d="M154.715,224.728l17.226,10.67,5.823,3.575a3.562,3.562,0,0,0,.889.4,2.672,2.672,0,0,0,1.709-.052,2.145,2.145,0,0,0,1.062-.845,1.424,1.424,0,0,0,.155-.35,2.049,2.049,0,0,0-.253-1.691,9.055,9.055,0,0,0-3.086-2.7l-.345-.212c-7.967-4.891-13.921-8.548-22.163-12.748l1.684-3.31c8.3,4.23,14.337,7.935,22.411,12.893l.344.211a12.531,12.531,0,0,1,4.335,3.96,5.58,5.58,0,0,1,.645,4.61,5.128,5.128,0,0,1-.562,1.264,5.887,5.887,0,0,1-2.891,2.37,6.345,6.345,0,0,1-4.06.169,7.243,7.243,0,0,1-1.8-.8l-5.822-3.576-15.3-9.476Z" transform="translate(948 2504.337)" fill-rule="evenodd"/>
    <path id="Trazado_1047" data-name="Trazado 1047" d="M221.569,231.795a3,3,0,1,0-3-3,3.005,3.005,0,0,0,3,3" transform="translate(907.566 2499.061)" fill="#3266cc" fill-rule="evenodd"/>
    <path id="Trazado_1048" data-name="Trazado 1048" d="M251.6,231.795a3,3,0,1,0-3-3,3.005,3.005,0,0,0,3,3" transform="translate(888.551 2499.061)" fill-rule="evenodd"/>
  </g>
</svg>
